ply
format ascii 1.0
comment Created by Blender 2.81 (sub 16) - www.blender.org, source file: ''
element vertex 24
property float x
property float y
property float z
property float nx
property float ny
property float nz
property uchar red
property uchar green
property uchar blue
property uchar alpha
element face 6
property list uchar uint vertex_indices
end_header
1.000000 -1.000000 -1.000000 1.000000 0.000000 0.000000 167 85 152 255
1.000000 1.000000 -1.000000 1.000000 0.000000 0.000000 167 85 152 255
1.000000 1.000000 1.000000 1.000000 0.000000 0.000000 168 87 153 255
1.000000 -1.000000 1.000000 1.000000 0.000000 0.000000 170 92 155 255
1.000000 -1.000000 1.000000 -0.000000 0.000000 1.000000 170 92 155 255
1.000000 1.000000 1.000000 -0.000000 0.000000 1.000000 168 87 153 255
-1.000000 1.000000 1.000000 -0.000000 0.000000 1.000000 167 85 152 255
-1.000000 -1.000000 1.000000 -0.000000 0.000000 1.000000 167 85 152 255
-1.000000 -1.000000 1.000000 -1.000000 0.000000 0.000000 167 85 152 255
-1.000000 1.000000 1.000000 -1.000000 0.000000 0.000000 167 85 152 255
-1.000000 1.000000 -1.000000 -1.000000 0.000000 0.000000 171 99 158 255
-1.000000 -1.000000 -1.000000 -1.000000 0.000000 0.000000 167 85 152 255
-1.000000 -1.000000 -1.000000 -0.000000 0.000000 -1.000000 167 85 152 255
-1.000000 1.000000 -1.000000 -0.000000 0.000000 -1.000000 171 99 158 255
1.000000 1.000000 -1.000000 -0.000000 0.000000 -1.000000 167 85 152 255
1.000000 -1.000000 -1.000000 -0.000000 0.000000 -1.000000 167 85 152 255
1.000000 -1.000000 1.000000 0.000000 -1.000000 0.000000 170 92 155 255
-1.000000 -1.000000 1.000000 0.000000 -1.000000 0.000000 167 85 152 255
-1.000000 -1.000000 -1.000000 0.000000 -1.000000 0.000000 167 85 152 255
1.000000 -1.000000 -1.000000 0.000000 -1.000000 0.000000 167 85 152 255
-1.000000 1.000000 1.000000 0.000000 1.000000 -0.000000 167 85 152 255
1.000000 1.000000 1.000000 0.000000 1.000000 -0.000000 168 87 153 255
1.000000 1.000000 -1.000000 0.000000 1.000000 -0.000000 167 85 152 255
-1.000000 1.000000 -1.000000 0.000000 1.000000 -0.000000 171 99 158 255
4 0 1 2 3
4 4 5 6 7
4 8 9 10 11
4 12 13 14 15
4 16 17 18 19
4 20 21 22 23
