ply
format ascii 1.0
comment Created by Blender 2.81 (sub 16) - www.blender.org, source file: 'lowPolyCubie.blend'
element vertex 72
property float x
property float y
property float z
property float nx
property float ny
property float nz
property uchar red
property uchar green
property uchar blue
property uchar alpha
element face 30
property list uchar uint vertex_indices
end_header
0.917725 1.000000 -0.917725 0.000000 1.000000 0.000000 255 0 19 255
-0.917725 1.000000 -0.917725 0.000000 1.000000 0.000000 255 0 19 255
-0.917725 1.000000 0.917725 0.000000 1.000000 0.000000 255 0 19 255
0.917725 1.000000 0.917725 0.000000 1.000000 0.000000 255 0 19 255
0.927488 -0.927488 1.000000 -0.000000 0.000000 1.000000 11 255 0 255
0.927488 0.927488 1.000000 -0.000000 0.000000 1.000000 11 255 0 255
-0.927488 0.927488 1.000000 -0.000000 0.000000 1.000000 11 255 0 255
-0.927488 -0.927488 1.000000 -0.000000 0.000000 1.000000 11 255 0 255
-1.000000 -0.944106 0.944106 -1.000000 0.000000 0.000000 255 249 244 255
-1.000000 0.944106 0.944106 -1.000000 0.000000 0.000000 255 249 244 255
-1.000000 0.944106 -0.944106 -1.000000 0.000000 0.000000 255 249 244 255
-1.000000 -0.944106 -0.944106 -1.000000 0.000000 0.000000 255 249 244 255
-0.916241 -1.000000 -0.916241 0.000000 -1.000000 -0.000000 255 104 19 255
0.916241 -1.000000 -0.916241 0.000000 -1.000000 -0.000000 255 104 19 255
0.916241 -1.000000 0.916241 0.000000 -1.000000 -0.000000 255 104 19 255
-0.916241 -1.000000 0.916241 0.000000 -1.000000 -0.000000 255 104 19 255
1.000000 -0.941938 -0.941938 1.000000 0.000000 0.000000 255 235 0 255
1.000000 0.941938 -0.941938 1.000000 0.000000 0.000000 255 235 0 255
1.000000 0.941938 0.941938 1.000000 0.000000 0.000000 255 235 0 255
1.000000 -0.941938 0.941938 1.000000 0.000000 0.000000 255 235 0 255
-0.928586 -0.928586 -1.000000 -0.000000 0.000000 -1.000000 18 15 255 255
-0.928586 0.928586 -1.000000 -0.000000 0.000000 -1.000000 18 15 255 255
0.928586 0.928586 -1.000000 -0.000000 0.000000 -1.000000 18 15 255 255
0.928586 -0.928586 -1.000000 -0.000000 0.000000 -1.000000 18 15 255 255
0.917725 1.000000 0.917725 0.000000 1.000000 0.000000 0 0 0 255
-0.917725 1.000000 0.917725 0.000000 1.000000 0.000000 0 0 0 255
-1.000000 1.000000 1.000000 0.000000 1.000000 0.000000 0 0 0 255
1.000000 1.000000 1.000000 0.000000 1.000000 0.000000 0 0 0 255
0.917725 1.000000 -0.917725 0.000000 1.000000 0.000000 0 0 0 255
1.000000 1.000000 -1.000000 0.000000 1.000000 0.000000 0 0 0 255
-0.917725 1.000000 -0.917725 -0.000000 1.000000 0.000000 0 0 0 255
-1.000000 1.000000 -1.000000 -0.000000 1.000000 0.000000 0 0 0 255
-0.927488 -0.927488 1.000000 -0.000000 0.000000 1.000000 0 0 0 255
-0.927488 0.927488 1.000000 -0.000000 0.000000 1.000000 0 0 0 255
-1.000000 1.000000 1.000000 -0.000000 0.000000 1.000000 0 0 0 255
-1.000000 -1.000000 1.000000 -0.000000 0.000000 1.000000 0 0 0 255
0.927488 0.927488 1.000000 0.000000 0.000000 1.000000 0 0 0 255
0.927488 -0.927488 1.000000 0.000000 0.000000 1.000000 0 0 0 255
1.000000 -1.000000 1.000000 0.000000 0.000000 1.000000 0 0 0 255
1.000000 1.000000 1.000000 0.000000 0.000000 1.000000 0 0 0 255
-0.928586 -0.928586 -1.000000 0.000000 0.000000 -1.000000 0 0 0 255
0.928586 -0.928586 -1.000000 0.000000 0.000000 -1.000000 0 0 0 255
1.000000 -1.000000 -1.000000 0.000000 0.000000 -1.000000 0 0 0 255
-1.000000 -1.000000 -1.000000 0.000000 0.000000 -1.000000 0 0 0 255
0.928586 0.928586 -1.000000 -0.000000 0.000000 -1.000000 0 0 0 255
1.000000 1.000000 -1.000000 -0.000000 0.000000 -1.000000 0 0 0 255
-0.928586 0.928586 -1.000000 0.000000 0.000000 -1.000000 0 0 0 255
-1.000000 1.000000 -1.000000 0.000000 0.000000 -1.000000 0 0 0 255
-0.916241 -1.000000 -0.916241 0.000000 -1.000000 0.000000 0 0 0 255
-0.916241 -1.000000 0.916241 0.000000 -1.000000 0.000000 0 0 0 255
-1.000000 -1.000000 1.000000 0.000000 -1.000000 0.000000 0 0 0 255
-1.000000 -1.000000 -1.000000 0.000000 -1.000000 0.000000 0 0 0 255
0.916241 -1.000000 -0.916241 0.000000 -1.000000 0.000000 0 0 0 255
1.000000 -1.000000 -1.000000 0.000000 -1.000000 0.000000 0 0 0 255
0.916241 -1.000000 0.916241 0.000000 -1.000000 -0.000000 0 0 0 255
1.000000 -1.000000 1.000000 0.000000 -1.000000 -0.000000 0 0 0 255
1.000000 0.941938 -0.941938 1.000000 0.000000 -0.000000 0 0 0 255
1.000000 -0.941938 -0.941938 1.000000 0.000000 -0.000000 0 0 0 255
1.000000 -1.000000 -1.000000 1.000000 0.000000 -0.000000 0 0 0 255
1.000000 1.000000 -1.000000 1.000000 0.000000 -0.000000 0 0 0 255
1.000000 -0.941938 0.941938 1.000000 0.000000 0.000000 0 0 0 255
1.000000 0.941938 0.941938 1.000000 0.000000 0.000000 0 0 0 255
1.000000 1.000000 1.000000 1.000000 0.000000 0.000000 0 0 0 255
1.000000 -1.000000 1.000000 1.000000 0.000000 0.000000 0 0 0 255
-1.000000 -0.944106 0.944106 -1.000000 0.000000 0.000000 0 0 0 255
-1.000000 -0.944106 -0.944106 -1.000000 0.000000 0.000000 0 0 0 255
-1.000000 -1.000000 -1.000000 -1.000000 0.000000 0.000000 0 0 0 255
-1.000000 -1.000000 1.000000 -1.000000 0.000000 0.000000 0 0 0 255
-1.000000 0.944106 0.944106 -1.000000 0.000000 -0.000000 0 0 0 255
-1.000000 1.000000 1.000000 -1.000000 0.000000 -0.000000 0 0 0 255
-1.000000 0.944106 -0.944106 -1.000000 0.000000 0.000000 0 0 0 255
-1.000000 1.000000 -1.000000 -1.000000 0.000000 0.000000 0 0 0 255
4 0 1 2 3
4 4 5 6 7
4 8 9 10 11
4 12 13 14 15
4 16 17 18 19
4 20 21 22 23
4 24 25 26 27
4 28 24 27 29
4 25 30 31 26
4 30 28 29 31
4 32 33 34 35
4 36 37 38 39
4 33 36 39 34
4 37 32 35 38
4 40 41 42 43
4 41 44 45 42
4 46 40 43 47
4 44 46 47 45
4 48 49 50 51
4 52 48 51 53
4 49 54 55 50
4 54 52 53 55
4 56 57 58 59
4 60 61 62 63
4 61 56 59 62
4 57 60 63 58
4 64 65 66 67
4 68 64 67 69
4 65 70 71 66
4 70 68 69 71
